<svg width="273" height="57" viewBox="0 0 273 57" fill="none" xmlns="http://www.w3.org/2000/svg">
<path fill-rule="evenodd" clip-rule="evenodd" d="M103.293 24.5852L103.258 7.13232H98.436L92.9303 16.4323L87.2809 7.13232H82.459V24.5852H87.8036V16.8921L91.5626 23.0089H94.1543L97.9177 16.625L97.9657 24.5896H103.293V24.5852Z" fill="white"/>
<path fill-rule="evenodd" clip-rule="evenodd" d="M111.878 20.1458V17.8427H119.222V13.5998H111.878V11.555H120.241V7.11957H106.124V24.5637H120.559V20.1326H111.878V20.1458Z" fill="white"/>
<path fill-rule="evenodd" clip-rule="evenodd" d="M122.815 24.5852H131.366C137.177 24.5852 141.171 21.2706 141.171 15.8544C141.171 10.4293 137.177 7.11914 131.366 7.11914H122.815V24.5852ZM128.67 19.9877V11.7166H131.126C133.574 11.7166 135.264 13.1747 135.264 15.8544C135.264 18.5121 133.574 19.9877 131.126 19.9877H128.67Z" fill="white"/>
<path fill-rule="evenodd" clip-rule="evenodd" d="M143.301 24.5852H149.159V7.1323H143.301V24.5852Z" fill="white"/>
<path fill-rule="evenodd" clip-rule="evenodd" d="M164.971 24.5852H171.026L163.442 7.1323H157.688L150.092 24.5852H156.037L157.213 21.5465H163.817L164.971 24.5852ZM158.816 17.2905L160.502 12.9032L162.192 17.2905H158.816Z" fill="white"/>
<path fill-rule="evenodd" clip-rule="evenodd" d="M91.4365 49.9021C94.8296 49.9021 97.5085 48.6761 99.2334 46.4168L95.5352 43.1066C94.5116 44.4026 93.2964 45.1601 91.7283 45.1601C89.3065 45.1601 87.6731 43.47 87.6731 40.7816C87.6731 38.115 89.3065 36.4249 91.7283 36.4249C93.2964 36.4249 94.5116 37.178 95.5352 38.4741L99.2334 35.1551C97.5085 32.9221 94.8383 31.6611 91.4365 31.6611C85.8567 31.6611 81.7666 35.4266 81.7666 40.7816C81.7666 46.1497 85.8567 49.9021 91.4365 49.9021Z" fill="white"/>
<path fill-rule="evenodd" clip-rule="evenodd" d="M109.662 49.9021C115.316 49.9021 119.449 46.0665 119.449 40.7816C119.449 35.4967 115.316 31.6611 109.662 31.6611C104.008 31.6611 99.8613 35.4967 99.8613 40.7816C99.8613 46.0665 104.008 49.9021 109.662 49.9021ZM109.662 45.1601C107.506 45.1601 105.755 43.505 105.755 40.7816C105.755 38.0625 107.506 36.4249 109.662 36.4249C111.818 36.4249 113.552 38.0625 113.552 40.7816C113.543 43.505 111.805 45.1601 109.662 45.1601Z" fill="white"/>
<path fill-rule="evenodd" clip-rule="evenodd" d="M142.404 49.5215L142.356 32.0598H137.556L132.05 41.3686L126.387 32.0598H121.583V49.5215H126.91V41.8371L130.682 47.954H133.274L137.037 41.5657L137.09 49.5215H142.404Z" fill="white"/>
<path fill-rule="evenodd" clip-rule="evenodd" d="M153.603 32.0595H145.235V49.5037H151.094V45.2215H153.603C158.438 45.2215 161.513 42.6819 161.513 38.6449C161.513 34.5991 158.438 32.0595 153.603 32.0595ZM153.228 40.6765H151.094V36.6045H153.228C154.836 36.6045 155.615 37.3707 155.615 38.658C155.615 39.9234 154.836 40.6765 153.228 40.6765Z" fill="white"/>
<path fill-rule="evenodd" clip-rule="evenodd" d="M172.782 49.9021C178.435 49.9021 182.582 46.0665 182.582 40.7816C182.582 35.4967 178.435 31.6611 172.782 31.6611C167.132 31.6611 162.985 35.4967 162.985 40.7816C162.985 46.0665 167.132 49.9021 172.782 49.9021ZM172.782 45.1601C170.625 45.1601 168.883 43.505 168.883 40.7816C168.883 38.0625 170.625 36.4249 172.782 36.4249C174.938 36.4249 176.676 38.0625 176.676 40.7816C176.676 43.505 174.938 45.1601 172.782 45.1601Z" fill="white"/>
<path fill-rule="evenodd" clip-rule="evenodd" d="M196.111 32.0595V39.9891L189.516 32.0595H184.707V49.5037H190.409V41.5785L197.003 49.5037H201.817V32.0595H196.111Z" fill="white"/>
<path fill-rule="evenodd" clip-rule="evenodd" d="M210.397 45.0857V42.7826H217.733V38.5354H210.397V36.4994H218.756V32.0464H204.635V49.5037H219.079V45.0551H210.397V45.0857Z" fill="white"/>
<path fill-rule="evenodd" clip-rule="evenodd" d="M232.738 32.0595V39.9891L226.135 32.0595H221.326V49.5037H227.019V41.5785L233.636 49.5037H238.444V32.0595H232.738Z" fill="white"/>
<path fill-rule="evenodd" clip-rule="evenodd" d="M245.031 49.5215H250.889V36.6267H255.985V32.0598H239.947V36.6267H245.044V49.5215H245.031Z" fill="white"/>
<path fill-rule="evenodd" clip-rule="evenodd" d="M263.974 49.9021C269.34 49.9021 272.045 47.2137 272.045 44.0348C272.045 37.5896 262.454 39.3323 262.454 37.2393C262.454 36.657 263.002 36.1403 264.714 36.1403C266.23 36.1403 267.837 36.5738 269.549 37.4495L271.313 33.1717C269.497 32.1646 267.088 31.6611 264.766 31.6611C259.378 31.6611 256.673 34.3057 256.673 37.5371C256.673 44.0436 266.278 42.2834 266.278 44.4771C266.278 45.0682 265.677 45.4316 264.022 45.4316C262.105 45.4316 259.927 44.7923 258.276 43.8247L256.403 48.1113C258.137 49.1928 261.055 49.9021 263.974 49.9021Z" fill="white"/>
<path fill-rule="evenodd" clip-rule="evenodd" d="M32.4681 40.0288L0 11.0953L10.9287 0.0745316L32.4681 18.0747L54.0424 0.0745316L64.9667 11.0953L32.4681 40.0288Z" fill="url(#paint0_linear_2356_1382)"/>
<path fill-rule="evenodd" clip-rule="evenodd" d="M53.7196 57L53.5933 56.8686C46.0534 49.3025 41.8849 39.28 41.9241 28.5569C41.9589 17.8295 46.1492 7.81134 53.7632 0.284615L54.042 0L64.9663 11.0953L64.6396 11.3798C60.0138 15.9379 57.4743 22.0679 57.4264 28.5569C57.3872 35.0372 59.9223 41.1671 64.5612 45.7734L64.67 45.8872L53.7196 57Z" fill="url(#paint1_linear_2356_1382)"/>
<path fill-rule="evenodd" clip-rule="evenodd" d="M11.2554 57L0.278817 45.9442L0.405099 45.8128C4.9961 41.2066 7.53118 35.1029 7.53118 28.6007C7.53118 22.1073 4.94824 15.9861 0.318031 11.428L0 11.139L10.9287 0.0131264L11.2554 0.293369C18.8257 7.85075 23.0509 17.882 23.0509 28.6095C23.0857 39.3325 18.9129 49.3463 11.3469 56.9255L11.2554 57Z" fill="url(#paint2_linear_2356_1382)"/>
<path fill-rule="evenodd" clip-rule="evenodd" d="M32.4724 40.0288L0 11.0953L10.9331 0.078907L32.4724 18.0835L54.0511 0.078907L64.9797 11.0953L32.4724 40.0288Z" fill="url(#paint3_linear_2356_1382)"/>
<path fill-rule="evenodd" clip-rule="evenodd" d="M53.7197 57L53.5977 56.873C46.0535 49.32 41.8806 39.2887 41.9242 28.5657C41.9634 17.8338 46.1406 7.80696 53.7676 0.288994L54.0507 0L64.9794 11.0953L64.6484 11.3798C60.0225 15.9423 57.4831 22.0679 57.4483 28.5657C57.4047 35.0547 59.9441 41.1759 64.57 45.7778L64.6963 45.9047L53.7197 57Z" fill="url(#paint4_linear_2356_1382)"/>
<path fill-rule="evenodd" clip-rule="evenodd" d="M11.2598 57L0.287524 45.9485L0.409485 45.8216C4.99613 41.2153 7.53557 35.0985 7.53557 28.6007C7.53557 22.1073 4.95255 15.9905 0.331058 11.4236L0 11.139L10.9331 0L11.2598 0.288994C18.8345 7.84637 23.0509 17.8733 23.0509 28.6007C23.0901 39.3282 18.9172 49.3463 11.3425 56.9168L11.2598 57Z" fill="url(#paint5_linear_2356_1382)"/>
<defs>
<linearGradient id="paint0_linear_2356_1382" x1="32.4812" y1="40.2215" x2="32.4812" y2="-0.188183" gradientUnits="userSpaceOnUse">
<stop stop-color="#A5141C"/>
<stop offset="0.8833" stop-color="#CE000A"/>
<stop offset="1" stop-color="#CE000A"/>
</linearGradient>
<linearGradient id="paint1_linear_2356_1382" x1="53.4495" y1="57.2671" x2="53.4495" y2="-0.402826" gradientUnits="userSpaceOnUse">
<stop stop-color="#A5141C"/>
<stop offset="1" stop-color="#CE000A"/>
</linearGradient>
<linearGradient id="paint2_linear_2356_1382" x1="11.5254" y1="57.2671" x2="11.5254" y2="-0.402833" gradientUnits="userSpaceOnUse">
<stop stop-color="#A5141C"/>
<stop offset="1" stop-color="#CE000A"/>
</linearGradient>
<linearGradient id="paint3_linear_2356_1382" x1="32.4942" y1="40.2215" x2="32.4942" y2="-0.196942" gradientUnits="userSpaceOnUse">
<stop stop-color="#A5141C"/>
<stop offset="0.8833" stop-color="#9E050D"/>
<stop offset="1" stop-color="#FF000C"/>
</linearGradient>
<linearGradient id="paint4_linear_2356_1382" x1="53.4539" y1="57.2715" x2="53.4539" y2="-0.394069" gradientUnits="userSpaceOnUse">
<stop stop-color="#A5141C"/>
<stop offset="1" stop-color="#CE000A"/>
</linearGradient>
<linearGradient id="paint5_linear_2356_1382" x1="11.5298" y1="57.2715" x2="11.5298" y2="-0.394069" gradientUnits="userSpaceOnUse">
<stop stop-color="#A5141C"/>
<stop offset="1" stop-color="#CE000A"/>
</linearGradient>
</defs>
</svg>
